<?xml version="1.0" encoding="utf-8"?>
<!-- Generator: Adobe Illustrator 22.0.1, SVG Export Plug-In . SVG Version: 6.00 Build 0)  -->
<svg version="1.1" id="Capa_1" xmlns="http://www.w3.org/2000/svg" xmlns:xlink="http://www.w3.org/1999/xlink" x="0px" y="0px"
	 viewBox="0 0 304.5 100" style="enable-background:new 0 0 304.5 100;" xml:space="preserve">
<style type="text/css">
	.st0{fill:none;stroke:#333233;stroke-width:1.9333;stroke-miterlimit:10;}
	.st1{fill:#333233;}
	.st2{fill:none;stroke:#333233;stroke-width:0.2417;stroke-miterlimit:10;}
	.st3{clip-path:url(#SVGID_2_);fill:#333233;}
</style>
<g>
	<g>
		<ellipse class="st0" cx="42.2" cy="50.2" rx="39.3" ry="48.2"/>
		<path class="st1" d="M42.3,38.4c-0.5-1.2-1-2.2-1.4-3.2c-0.3-0.7-0.7-1-1.4-1c-1,0-2,0-3.1-0.2c0.7-0.6,1.3-1.2,2-1.7
			c0.9-0.6,1-1.2,0.6-2.2c-0.4-0.8-0.7-1.7-0.8-2.7c0.9,0.6,1.9,1.1,2.8,1.7c0.6,0.4,1,0.4,1.6-0.1c0.8-0.6,1.6-1.2,2.6-1.7
			c-0.2,1-0.4,1.9-0.6,2.8c-0.2,0.8-0.1,1.3,0.6,1.7c0.9,0.5,1.7,1.2,2.8,1.9c-1.3,0.1-2.4,0.2-3.5,0.2c-0.7,0-1,0.2-1.2,0.9
			C43.1,36.2,42.7,37.2,42.3,38.4z"/>
		<path class="st1" d="M9,77c0.3-0.1,0.7-0.2,1-0.3l1-0.3c0.7-0.2,1.3-0.3,2-0.5l0.5-0.1c0.2,0,0.3-0.1,0.5-0.1
			c0.3-0.1,0.7-0.1,1-0.2c0.7-0.1,1.4-0.2,2.1-0.3c0.7-0.1,1.4-0.2,2.1-0.2c0.4,0,0.7,0,1.1,0c0.4,0,0.7,0,1,0c0.3,0,0.7,0,1,0l1,0
			c0.7,0,1.4,0,2,0.1l2,0.1l2,0.1l1,0.1c0.3,0,0.7,0.1,1,0.1c0.7,0.1,1.4,0.1,2.1,0.2c1.4,0.1,2.7,0.3,4.1,0.5
			c1.3,0.2,2.7,0.4,4,0.6c1.3,0.2,2.6,0.3,4,0.5l2,0.2l1,0.1l1,0.1l4,0.3l0.5,0l0.5,0l1,0.1l2,0.1c2.7,0.2,5.4,0.3,8.1,0.5l2,0.1
			c0.7,0,1.4,0.1,2,0.1c0.7,0,1.4,0.1,2,0.1c0.7,0,1.4,0.1,2,0l0.1,0.2c-0.3,0.1-0.7,0.1-1,0.2c-0.3,0-0.7,0.1-1,0.1
			c-0.7,0.1-1.4,0.1-2,0.1c-1.4,0.1-2.7,0.1-4.1,0.2c-2.7,0.1-5.4,0.1-8.1,0.1l-2,0c-0.7,0-1.4,0-2,0l-2-0.1l-2-0.1
			c-2.7-0.1-5.4-0.4-8.1-0.7c-2.7-0.4-5.4-0.8-8-1.2c-2.7-0.4-5.4-0.6-8.1-0.9c-2.7-0.3-5.4-0.6-8.1-0.5c-1.3,0-2.7,0.2-4,0.3
			c-1.3,0.1-2.7,0.3-4,0.5L9,77z"/>
		<path class="st1" d="M10.5,80.1c0.3-0.1,0.6-0.2,0.9-0.2c0.3-0.1,0.6-0.2,0.9-0.2c0.6-0.1,1.3-0.3,1.9-0.4c0.3-0.1,0.6-0.1,1-0.2
			l1-0.1c0.3-0.1,0.6-0.1,1-0.1c0.3,0,0.6-0.1,1-0.1c2.6-0.3,5.3-0.2,7.9,0.1l1.9,0.2l1.9,0.2c1.3,0.1,2.6,0.3,3.8,0.4
			c1.3,0.2,2.5,0.4,3.8,0.5c1.3,0.2,2.5,0.4,3.8,0.6c1.2,0.2,2.5,0.4,3.7,0.5c0.6,0.1,1.2,0.2,1.9,0.2l1.9,0.2
			c2.5,0.3,5,0.5,7.5,0.8l1.9,0.2l1.9,0.2c0.6,0.1,1.3,0.1,1.9,0.2c0.6,0.1,1.3,0.1,1.9,0.2c0.6,0.1,1.3,0.1,1.9,0.1l1,0.1
			c0.3,0,0.6,0,1,0.1c0.6,0,1.3,0.1,1.9,0.1c0.6,0,1.3,0,1.9,0l0.1,0.2c-0.6,0.2-1.3,0.3-1.9,0.4c-0.6,0.1-1.3,0.1-1.9,0.2
			c-1.3,0.1-2.6,0.2-3.8,0.2c-1.3,0-2.6,0-3.8,0c-0.6,0-1.3,0-1.9-0.1c-0.6,0-1.3,0-1.9-0.1C51,84.1,45.9,83.8,40.9,83
			c-2.5-0.4-5-0.8-7.6-1.2c-1.3-0.2-2.5-0.4-3.8-0.6l-3.8-0.6c-2.5-0.4-5.1-0.6-7.6-0.6c-2.5,0-5.1,0.2-7.6,0.4L10.5,80.1z"/>
		<path class="st1" d="M13.5,82.2c0.3,0,0.6,0,0.9,0l0.9,0l1.7,0.1c0.6,0,1.2,0.1,1.7,0.1c0.6,0.1,1.2,0.1,1.7,0.2
			c0.6,0.1,1.2,0.2,1.7,0.2c0.6,0.1,1.1,0.2,1.7,0.3c1.1,0.2,2.2,0.4,3.3,0.6l1.6,0.2c0.6,0.1,1.1,0.2,1.7,0.2l1.7,0.2
			c0.6,0.1,1.1,0.1,1.7,0.2c2.3,0.3,4.5,0.7,6.8,1l0.8,0.1l0.8,0.1c0.5,0.1,1.1,0.2,1.6,0.2c0.3,0,0.5,0.1,0.8,0.1l0.8,0.1l0.8,0.1
			l0.8,0.1c1.1,0.1,2.3,0.2,3.4,0.3l1.7,0.2c0.6,0.1,1.1,0.1,1.7,0.2l0.9,0.1l0.4,0l0.4,0c0.5,0,1.1,0.1,1.7,0.1
			c1.1,0,2.3,0.1,3.4,0.1l1.7,0l1.7,0c0.6,0,1.1,0,1.7,0c0.6,0,1.1,0,1.7-0.1l0.1,0.2c-0.6,0.2-1.1,0.3-1.7,0.4
			c-0.6,0.1-1.1,0.2-1.7,0.2c-1.1,0.1-2.3,0.3-3.4,0.4c-1.1,0.1-2.3,0.2-3.4,0.2c-0.6,0-1.1,0-1.7,0c-0.6,0-1.1,0-1.7,0
			c-2.3-0.1-4.6-0.2-6.9-0.3c-1.1-0.1-2.3-0.1-3.4-0.2c-1.1-0.1-2.3-0.3-3.4-0.4c-1.1-0.2-2.3-0.4-3.4-0.5l-3.4-0.6
			c-2.3-0.4-4.5-0.7-6.8-1.2c-1.1-0.3-2.2-0.6-3.3-0.9c-1.1-0.3-2.2-0.6-3.3-0.9c-2.2-0.5-4.5-1-6.7-1.4L13.5,82.2z"/>
		<path class="st1" d="M16.7,86.5c0.2,0,0.5,0,0.7,0c0.2,0,0.5,0,0.7,0c0.5,0,0.9,0,1.4,0c0.2,0,0.5,0,0.7,0l0.7,0.1
			c0.5,0,0.9,0.1,1.4,0.1c1.9,0.2,3.7,0.6,5.5,1l2.7,0.6c0.9,0.2,1.7,0.4,2.6,0.5c0.2,0,0.4,0.1,0.6,0.1l0.6,0.1
			c0.4,0.1,0.9,0.1,1.3,0.2c0.9,0.1,1.8,0.2,2.7,0.3c3.6,0.4,7.2,0.7,10.9,1.1c3.6,0.4,7.3,0.8,11,1.4l0,0.2
			c-1.8,0.1-3.7,0.2-5.5,0.2c-1.8,0-3.7,0-5.5,0c-3.7-0.1-7.4-0.3-11.1-0.6c-1.8-0.2-3.7-0.4-5.5-0.8c-1.8-0.4-3.6-0.9-5.4-1.4
			c-1.8-0.5-3.5-1.1-5.3-1.5c-1.8-0.5-3.6-0.9-5.4-1.1L16.7,86.5z"/>
		<path class="st1" d="M21.7,90.6c2.9,0.6,5.8,1.1,8.6,1.6l4.3,0.8l2.1,0.4c0.4,0.1,0.7,0.1,1,0.2c0.3,0.1,0.7,0.1,1,0.1
			c0.3,0,0.7,0.1,1,0.1c0.1,0,0.1,0,0.2,0c0.1,0,0.2,0,0.3,0c0.2,0,0.3,0,0.5,0c0.7,0,1.4,0,2,0c1.4,0,2.8-0.1,4.2-0.2
			c1.4,0,2.9-0.1,4.4,0c0.4,0,0.7,0,1.1,0.1c0.4,0,0.7,0.1,1.1,0.1c0.8,0.1,1.5,0.2,2.3,0.3l0,0.2c-2.9,0.5-5.8,1-8.7,1.4
			c-1.5,0.2-2.9,0.3-4.4,0.4c-0.7,0-1.5,0-2.2,0c-0.2,0-0.4,0-0.6,0c-0.2,0-0.4,0-0.6,0c-0.4,0-0.7-0.1-1.1-0.2
			c-1.4-0.3-2.9-0.6-4.3-0.9c-1.4-0.4-2.8-0.7-4.2-1.2c-0.7-0.2-1.4-0.4-2.1-0.6c-0.7-0.2-1.4-0.5-2.1-0.7c-1.4-0.5-2.8-1-4.1-1.6
			L21.7,90.6z"/>
		<g>
			<path class="st1" d="M61,74.2c-0.2-0.4-0.2-0.5-0.3-1.3c0-0.3-0.1-0.8-0.1-1.1c0-0.1,0-0.2,0-0.3c0-0.4,0.1-0.9,0.2-1.4
				c0.1-0.3,0.2-0.8,0.3-1.2c0,0,0.2-0.9,0.1-1.3c0-0.2-0.1-0.4-0.2-0.6c-0.1-0.2-0.2-0.4-0.2-0.6c-0.1-0.1-0.1-0.3-0.2-0.4
				c-0.1-0.1-0.1-0.1-0.3-0.2c-0.2-0.1-0.1-0.1-0.4-0.3c0,0-0.2-0.1-0.2-0.1c-0.1,0-0.1-0.1-0.2-0.1c0.2-0.3,0.2-0.8-0.1-1.2
				c-0.3-0.6-1-0.8-1.4-0.6c-0.4,0.3-0.5,0.9-0.2,1.5c0.3,0.5,0.8,0.8,1.2,0.6c0,0.2,0.1,0.5,0.1,0.7c0,1-0.3,1.9-0.9,2.6v5.6
				c-4.8,0.6-9.9,0.4-19-0.3l1.6,4.3h27.6l2.3-7C66.9,72.8,63.9,73.7,61,74.2z"/>
			<path class="st2" d="M52.9,65.8l19.7,12.8"/>
		</g>
		<path class="st1" d="M40.1,50.2c1-0.6,1.9-1.2,3-1.8c-0.4-0.4-0.7-1-1.2-1.4c-0.8-0.7-1.2-0.7-2,0c-0.9,0.7-1.9,1-3,0.8
			c-1.3-0.2-1.9-0.9-1.9-2.3c-1,0.1-5.6,0.3-6.6,0.2c-4.1-0.4-13.3-1.3-25-2.7c-0.2,0-0.4-0.4-0.6-0.7c0.3-0.1,0.6-0.5,0.8-0.4
			c1.8,0.2,19.5,2.2,21.3,2.5c3.4,0.5,6.9,0.2,10.3-0.2c0.6-0.1,1.3-0.5,1.7-0.9c1.1-1,2.2-1.7,3.8-1.9c2.2-0.2,4.2,0,6.1,1.3
			c0.5,0.4,1.2,0.7,1.8,1c2,1.4,4.1,1.6,6.4,1.1c2.8-0.7,22.1-5.6,24.9-6.3c0.1,0,0.3-0.1,0.4-0.1c0.3,0.1,0.6,0.2,0.9,0.4
			c-0.2,0.2-0.3,0.6-0.6,0.7c-1.2,0.4-18.9,5-20.1,5.3c-2.5,0.5-5.1,1-7.6,1.4c-1.2,0.2-2.4-0.1-3.5-0.7c-1.3-0.7-2.5-1.4-3.8-2.1
			c-1.1-0.7-2.4-0.8-3.7-0.9c-2.5-0.1-4,1.3-5.4,3.1c-0.4,0.5-0.2,0.8,0.4,0.9c0.8,0.2,1.7,0.1,2.3-0.5c1.8-2.1,5.1-1.7,7-1
			c0.2,0.1,0.3,0.5,0.5,0.8c-0.3,0.1-0.7,0.3-0.9,0.2c-1.1-0.4-2.2-0.6-3.3-0.4c0.6,0.8,1.1,1.5,1.6,2.2c1.2,1.9,3.1,2.6,5.2,2
			c0.2-0.1,0.4-0.2,0.5-0.2c0.3,0,0.5,0.2,0.7,0.3c-0.1,0.2-0.2,0.6-0.3,0.7c-0.6,0.3-1.3,0.4-2,0.6c-0.1,0.6-0.2,1.1-0.4,1.7
			c1.5,1.1,1.7,2,0.6,3.5c-0.7,0.9-1.5,1.6-2.3,2.4c-0.2,0.2-0.4,0.4-0.7,0.6c0.1,0.1,0.1,0.1,0.1,0.2c0.2-0.1,0.5-0.2,0.7-0.3
			c2.2-1.2,4.2-2.7,5.8-4.6c0.7-0.8,0.9-1.8,0.9-2.8c0-0.3,0.3-0.8,0.5-0.8c0.5-0.1,0.6,0.4,0.6,0.8c0,0.5,0,1,0,1.6
			c1.1-0.1,2.3-0.3,3.5-0.4c2.4-0.3,21.1-2.5,23.4-2.8c0.4,0,0.9-0.1,0.9,0.5c0,0.6-0.4,0.6-0.8,0.7c-3.2,0.3-22.7,2.7-25.9,3
			c-1.1,0.1-2,0.5-2.7,1.4c-1.6,1.7-3.4,3.2-5.4,4.3c-0.8,0.4-1.8,0.8-2.8,0.9c-1.3,0.2-2.3-0.4-3.1-1.5c-0.2-0.2-0.5-0.4-0.7-0.5
			c-0.4,0.7-0.7,1.3-1,1.8c-0.3,0.4-0.6,0.5-1,0.1c-1.4-1.4-3.2-2.1-5.1-2.7c-2.5-0.8-4.8-2-6.5-4.1c-0.3-0.3-0.9-0.6-1.4-0.6
			C23.6,53.5,5.5,53,3.4,52.9c-0.2,0-0.5,0.1-0.7,0c-0.2-0.1-0.4-0.3-0.4-0.5c0-0.2,0.2-0.4,0.4-0.5c0.1-0.1,0.3-0.1,0.4-0.1
			c2.4,0.1,20.7,0.5,23,0.7c1,0.1,1.8,0.5,2.4,1.3c1.2,1.5,2.8,2.4,4.6,3c2.2,0.8,4.3,1.4,6.2,3c0.4-0.8,0.4-1.5-0.1-2.1
			c-0.6-0.6-1.3-1.2-2.1-1.7c-0.9-0.6-1.8-1.1-2.7-1.7c-1.1-0.9-1.3-1.9-0.3-2.9c0.9-1,1.9-1.9,3-2.5C38.6,48,39.6,48.5,40.1,50.2z
			 M47.1,51.8c-0.1-0.7-0.3-1-0.9-0.7c-0.4,0.2-0.8,0.4-1.1,0.7c-1.6,1.4-3.1,2.9-4.6,4.3c-0.5,0.5-0.4,1,0.1,1.5
			c0.4,0.5,1,0.7,1.5,0.2c1.6-1.6,3.1-3.2,4.6-4.9C46.8,52.6,46.9,52.1,47.1,51.8z M43.8,49.4c-0.5,0.2-0.8,0.3-1.1,0.5
			c-1.8,1.5-3.5,3-5.3,4.5c-0.1,0.1-0.2,0.4-0.1,0.5c0.2,0.6,1.7,1,2.2,0.6c1.3-1.3,2.7-2.5,4-3.8c0.3-0.3,0.6-0.9,0.7-1.3
			C44.2,50,44,49.7,43.8,49.4z M38.5,49.6c-0.3,0-0.4,0-0.5,0.1c-1.3,0.6-2.4,1.5-3.2,2.7c-0.4,0.6,0.1,1,0.5,1.3
			c0.4,0.3,0.8,0.4,1.2,0c0.7-0.7,1.4-1.5,2-2.2c0.2-0.3,0.4-0.7,0.4-1.1C38.9,50.1,38.6,49.8,38.5,49.6z M43.5,59.9
			c0.3-0.2,0.5-0.4,0.7-0.5c0.9-0.9,1.8-1.7,2.6-2.6c0.4-0.4,0.8-0.8,1-1.3c0.2-0.3,0.1-0.7,0.1-1.1c-0.4,0.1-0.8,0.1-1.1,0.3
			c-1.4,1.3-2.7,2.6-4,3.9c-0.1,0.1-0.2,0.5-0.1,0.7C42.9,59.5,43.2,59.7,43.5,59.9z"/>
		<g>
			<defs>
				<rect id="SVGID_1_" y="1.7" width="84.4" height="44.4"/>
			</defs>
			<clipPath id="SVGID_2_">
				<use xlink:href="#SVGID_1_"  style="overflow:visible;"/>
			</clipPath>
			<path class="st3" d="M56.4,43.7c-0.1,0.2,0,0.7,0.3,1.1c0.8-0.1,1.6-0.2,2.4-0.3c0.6-0.1,1.2-0.2,1.7-0.3
				c-1.2-0.5-2.7-1.1-3.6-1.2C57.1,43,56.6,43.4,56.4,43.7z"/>
			<path class="st3" d="M74.5,40.8c2.1-0.6,4.1-0.9,6.2-1.1c-4-21.3-19.6-37.3-38.3-37.3c-19.1,0-35,16.6-38.5,38.7
				c0,0,0.4,1.1,0.4,1.2l2.4,0.3c0.3,0.1,2.2,0.3,3,0.3c0.2,0,0.3,0,0.5,0.1c0.2,0,0.5,0,0.7,0.1c1.8,0.3,4,0.6,5.7,0.8
				c2.1-0.8,4.8-1.5,6.2-1.4c1.5,0.2,2.9-0.3,4.3-0.8c0.5-0.2,0.7-0.4,0.7-1c-0.1-0.6-0.4-0.7-0.9-0.7c-2.8-0.1-5.6-0.2-8.3-0.3
				c-1.6-0.1-3.2-0.1-4.8-0.2c-0.2,0-0.5-0.1-0.7-0.2c0-0.1,0-0.2,0-0.3c0.3-0.1,0.6-0.1,0.9-0.2c4.2-0.2,8.4-0.3,12.6-0.5
				c0.4,0,0.9,0,0.9-0.6c0-0.6-0.4-0.5-0.8-0.6c-1.3-0.4-2.6-0.7-3.8-1.3c-1.7-0.8-3.4-1.4-5.4-1.2c-0.9,0.1-1.9-0.4-2.8-0.7
				c-0.4-0.2-0.6-0.7-1-1.1c0.1-0.1,0.1-0.1,0.2-0.2c0.2,0.1,0.3,0.2,0.5,0.3c0.7,0.7,1.5,0.8,2.4,0.7c2.1-0.3,4.2-0.3,6.2,0.6
				c1.1,0.5,2.4,0.8,3.6,1.1c0.5,0.1,1.1,0.3,1.3-0.5c0.2-0.8-0.1-1.1-0.8-1.5c-3.8-1.8-7.5-3.6-11.2-5.4c-0.2-0.1-0.4-0.3-0.6-0.4
				c0-0.1,0.1-0.2,0.1-0.3c0.3,0.1,0.6,0.1,0.8,0.2c3.7,1.4,7.3,2.8,11,4.2c0.3,0.1,0.6,0.3,0.9,0.3c0.2,0,0.6-0.1,0.7-0.3
				c0.1-0.2,0-0.7-0.1-0.7c-1.7-0.9-2.7-2.4-4-3.8c-0.9-1-2.1-1.7-3.4-2.1c-1.1-0.4-2-1-2.5-2c-0.2-0.4-0.3-0.8-0.4-1.2
				c0.2,0,0.3,0,0.3,0c0.6,1.4,1.8,1.9,3.2,2.3c1.9,0.5,3.6,1.5,4.9,3.1c0.6,0.8,1.6,1.3,2.4,2c0.4,0.3,0.8,0.3,1.2-0.2
				c0.3-0.5,0.6-0.8,0.1-1.4c-2.7-3-5.4-6.1-8.1-9.1c-0.2-0.3-0.4-0.6-0.6-0.9c0.1-0.1,0.2-0.2,0.3-0.2c0.9,0.9,1.8,1.8,2.8,2.6
				c2.2,2.1,4.4,4.3,6.7,6.4c0.3,0.3,0.7,0.5,0.9,0.1c0.2-0.2,0.2-0.7,0-1c-0.5-1.1-1-2.2-1.5-3.4c-0.6-1.6-1.2-3-2.5-4.1
				c-1-0.8-1.7-1.9-1.9-3.2c-0.1-0.4,0-0.9,0-1.4c0.3,0.1,0.4,0.1,0.4,0.1c0.1,1.5,0.9,2.5,2.1,3.4c1.7,1.2,2.7,2.9,3.4,4.8
				c0.3,0.9,0.9,1.7,1.3,2.6c0.2,0.4,0.6,0.7,1.1,0.3c0.5-0.3,1.1-0.5,0.8-1.3c-0.7-1.9-1.3-3.8-2-5.7c-0.7-2-1.4-3.9-2.1-5.9
				c-0.1-0.3-0.1-0.6-0.2-0.9c0.1,0,0.1-0.1,0.2-0.1c0.1,0.2,0.3,0.3,0.4,0.5c1.6,3.6,3.2,7.2,4.8,10.9c0.1,0.3,0.2,0.6,0.4,0.8
				c0.2,0.2,0.5,0.2,0.7,0.2c0.2-0.1,0.5-0.4,0.5-0.6c0-1.6,0.1-3.2-0.1-4.8c-0.1-1.3-0.4-2.6-0.9-3.8c-0.4-1.2-0.9-2.4-0.5-3.8
				c0.1-0.4,0.3-0.7,0.7-1c0,0.1,0.1,0.3,0.1,0.4c-0.4,1.3,0,2.5,0.6,3.6c1.1,1.8,1.6,3.6,1.4,5.7c-0.1,0.9,0.1,1.9,0.2,2.9
				c0.1,0.9,0.7,0.8,1.4,0.7c0.7,0,0.8-0.4,0.9-1c0.1-3.9,0.3-7.8,0.4-11.7c0-0.5,0.1-1,0.1-1.5h0.4c0.2,4.4,0.4,8.7,0.5,13.1
				c0,0.4-0.1,1,0.6,1c0.7,0.1,0.7-0.4,0.8-0.9c0.4-1.3,0.9-2.5,1.4-3.8c0.6-1.3,0.8-2.7,0.7-4.1c-0.1-1.3,0-2.5,0.8-3.6
				c0.3-0.3,0.6-0.6,1.1-0.8c-1.5,1.6-0.8,3.4-0.7,5.1c0.1,1.8-0.3,3.5-1.1,5.1c-0.4,0.7-0.4,1.6-0.7,2.4c-0.3,0.9,0.4,1,1,1.2
				c0.7,0.3,0.9-0.2,1.1-0.6c1.3-2.9,2.6-5.9,3.9-8.8c0.3-0.8,0.7-1.5,1-2.2c0.1-0.2,0.3-0.4,0.4-0.7c0.1,0,0.2,0.1,0.3,0.1
				c-0.1,0.3-0.1,0.7-0.2,1c-1.3,3.8-2.7,7.5-4,11.3c-0.1,0.3-0.1,0.9,0.1,1.1c0.2,0.3,0.6,0.3,0.9-0.1c0.9-1.1,1.8-2.1,2.8-3.1
				c1.1-1.1,1.9-2.3,2.4-3.8c0.4-1.2,0.9-2.2,2-2.9c0.4-0.2,0.8-0.3,1.2-0.4c0,0.1,0.1,0.2,0.1,0.2c-0.1,0.1-0.3,0.3-0.4,0.3
				c-0.9,0.5-1.4,1.2-1.6,2.2c-0.5,2.4-1.5,4.5-3.4,6.2c-0.7,0.6-1.1,1.5-1.6,2.3c-0.5,0.8,0.3,1.1,0.6,1.5c0.4,0.5,0.7,0,1-0.2
				c2.9-2.8,5.8-5.6,8.7-8.3c0.2-0.2,0.5-0.4,0.8-0.6l0.2,0.2c-0.1,0.3-0.3,0.5-0.4,0.7c-2.7,3.1-5.5,6.2-8.2,9.3
				c-0.3,0.4-0.6,0.7-0.2,1.1c0.4,0.5,0.7,0.1,1.1-0.1c1.1-0.6,2.1-1.2,3.2-1.6c1.7-0.6,3.2-1.5,4.3-2.9c0.9-1.1,2-1.9,3.5-1.7
				c0.2,0,0.3,0.1,0.6,0.2c-0.3,0.1-0.4,0.3-0.5,0.3c-1.1,0.1-1.9,0.7-2.5,1.6c-1.3,1.9-3,3.4-5.3,4.1c-1,0.3-1.8,1.1-2.6,1.7
				c-0.7,0.5-0.3,1-0.1,1.5c0.3,0.6,0.7,0.3,1,0.1c3.8-1.5,7.7-2.9,11.5-4.4c0.3-0.1,0.6-0.2,0.9-0.2l0.1,0.2
				c-0.2,0.2-0.5,0.4-0.8,0.6c-3.7,1.8-7.5,3.6-11.3,5.4c-0.1,0.1-0.3,0.1-0.4,0.2c-0.1,0.3-0.3,0.6-0.2,0.9c0,0.1,0.5,0.3,0.7,0.3
				c1.6-0.5,3.2-0.5,4.9-0.3c1.4,0.1,2.8-0.2,4.1-0.8c1-0.5,2-0.9,3.1-0.7c0.5,0.1,1.1,0.4,1.5,0.8c-0.7,0-1.5-0.1-2.2,0
				c-0.7,0.2-1.3,0.6-1.9,0.9c-1.5,0.9-3.1,1.4-4.9,1.3c-1.5-0.1-2.9,0.1-4.3,0.7c-0.7,0.3-0.8,0.8-0.6,1.3c0.1,0.3,0.6,0.5,0.9,0.6
				c4.2,0.2,8.5,0.3,12.7,0.5c0.3,0,0.6,0.1,1,0.2c0,0.1,0,0.2,0,0.3c-0.3,0.1-0.6,0.1-0.8,0.2c-4.1,0.2-8.3,0.3-12.4,0.5
				c-0.4,0-0.8,0-1.1,0.1c-0.2,0.1-0.4,0.4-0.4,0.6c0,0.1,0.3,0.4,0.5,0.4c1.8,0.2,3.5,0.8,5,1.7c0.6,0.3,1.1,0.5,1.7,0.7
				c1.3-0.6,2.7-0.8,4.1-1C70.5,41.8,72.5,41.4,74.5,40.8z"/>
			<path class="st3" d="M81.7,48.3c-0.5,0.2-1,0.3-1.5,0.4c-1.1,0.2-2.4,0.4-3.5-0.2c-0.8-0.4-1.1-1.2-1-2c-2.1,0.5-4.3,1.3-6.6,1.4
				c-0.3,0-0.5,0-0.7-0.1c-0.7,0.1-1.4,0.3-2.1,0.4c-1.8,0.3-4.1,0-5.7,0.8c-0.7,0.3-1.3,0.1-1.7-0.4c-0.2,0.1-0.3,0.1-0.5,0.2
				c-0.4,0.2-0.8,0.1-1-0.1c-1.1,0.3-1.8-0.8-1.6-1.7c-0.1-0.1-0.2-0.2-0.3-0.4c-0.2,0.1-0.5,0.1-0.9,0c-1.8-0.5-3.8-0.2-5.7,0
				c-1.9,0.2-3.7,0.4-5.5,0.5c-3,0.3-6,0.5-9,0.3c-1.5,0.1-3,0.3-4.5,0.3c-0.2,0.6-0.8,1-1.6,0.9c-0.7-0.1-1.4-0.2-2.1-0.3
				c0,0-0.1,0-0.1,0c-0.2,0.1-0.4,0.2-0.7,0.2c-1.7,0-3.5,0.3-5.2,0.1c-1.7-0.1-3.3-0.8-5-1c-3.7-0.3-7.2-0.9-10.9-0.9
				c-0.7,0-1.1-0.4-1.2-1c-0.1,1.5-0.2,3.1-0.2,4.7c0,26.6,17.6,48.1,39.3,48.1c21.7,0,39.3-21.5,39.3-48.1
				C81.8,49.9,81.8,49.1,81.7,48.3z"/>
			<path class="st3" d="M26.7,45.3c0.5-0.5,1.3-1.2,1.4-1.3c0.2-0.2,0.3-0.5,0.4-0.7c-0.2-0.1-0.6-0.3-0.7-0.3
				c-2.2,0.9-4.5,0.5-6.8,0.7c-0.7,0.1-1.3,0.3-1.9,0.5C21.6,44.5,24.1,44.9,26.7,45.3z"/>
		</g>
	</g>
	<g>
		<path class="st1" d="M101.2,13.3l5.3,13.4l5.3-13.4h2.6v15.3h-1.8V15.5l-5.2,13.1h-1.9l-5.2-13.1v13.1h-1.8V13.3H101.2z"/>
		<path class="st1" d="M120,13.3v9.4c0,2.7,1.1,4.5,4.2,4.5c3,0,4.2-1.7,4.2-4.5v-9.4h1.8v9.4c0,3.4-1.3,6.1-6,6.1
			c-4.7,0-6-2.7-6-6.1v-9.4H120z"/>
		<path class="st1" d="M136.2,13.3l8.5,13.3V13.3h1.8v15.3h-2.4l-8.4-13.1v13.1H134V13.3H136.2z"/>
		<path class="st1" d="M150.3,13.3h1.8v15.3h-1.8V13.3z"/>
		<path class="st1" d="M155,21c0-4.3,2.8-7.8,7.4-7.8c3.2,0,5.4,1.6,6.5,3.8l-1.5,1c-1-1.9-2.8-3.2-5-3.2c-3.4,0-5.5,2.7-5.5,6.2
			c0,3.4,2.1,6.2,5.5,6.2c2.2,0,4-1.2,5-3l1.6,1c-1.2,2.2-3.4,3.7-6.5,3.7C157.8,28.8,155,25.2,155,21z"/>
		<path class="st1" d="M171.6,13.3h1.8v15.3h-1.8V13.3z"/>
		<path class="st1" d="M177.2,13.3h5.6c4.2,0,5.8,2.2,5.8,5c0,2.8-1.6,5-5.8,5H179v5.3h-1.8V13.3z M179,14.9v6.8h3.7
			c2.9,0,4.1-1.4,4.1-3.4c0-2-1.2-3.4-4.1-3.4H179z"/>
		<path class="st1" d="M189.4,28.6l5.8-15.3h2.2l5.8,15.3h-1.8l-1.4-3.7h-7.5l-1.4,3.7H189.4z M193.1,23.4h6.4l-3.2-8.5L193.1,23.4z
			"/>
		<path class="st1" d="M205.6,13.3h1.8v13.8h7.4v1.6h-9.2V13.3z"/>
		<path class="st1" d="M217.6,13.3h1.8v15.3h-1.8V13.3z"/>
		<path class="st1" d="M223.2,28.6V13.3h5.5c4.4,0,7.4,3.1,7.4,7.6c0,4.5-2.9,7.7-7.4,7.7H223.2z M224.9,14.9V27h3.8
			c3.2,0,5.5-2.5,5.5-6.1s-2.3-6-5.5-6H224.9z"/>
		<path class="st1" d="M237.1,28.6l5.8-15.3h2.2l5.8,15.3h-1.8l-1.4-3.7h-7.5l-1.4,3.7H237.1z M240.8,23.4h6.4l-3.2-8.5L240.8,23.4z
			"/>
		<path class="st1" d="M253.3,28.6V13.3h5.5c4.4,0,7.4,3.1,7.4,7.6c0,4.5-2.9,7.7-7.4,7.7H253.3z M255.1,14.9V27h3.8
			c3.2,0,5.5-2.5,5.5-6.1s-2.3-6-5.5-6H255.1z"/>
		<path class="st1" d="M274.7,28.6V13.3h5.5c4.4,0,7.4,3.1,7.4,7.6c0,4.5-2.9,7.7-7.4,7.7H274.7z M276.5,14.9V27h3.8
			c3.2,0,5.5-2.5,5.5-6.1s-2.3-6-5.5-6H276.5z"/>
		<path class="st1" d="M301,13.3v1.6h-8.7v5.4h7.3v1.6h-7.3v5.2h8.7v1.6h-10.4V13.3H301z"/>
	</g>
	<g>
		<path class="st1" d="M98.1,44.3h13.3c11.1,0,15.3,6.3,15.3,13.9c0,7.8-4.2,14.1-15.3,14.1h-4.8V85h-8.6V44.3z M106.7,52v12.7h4.5
			c5.2,0,6.6-3.1,6.6-6.5s-1.4-6.2-6.6-6.2H106.7z"/>
		<path class="st1" d="M126.8,85l11.6-40.7h10.3L160.4,85h-8.6l-1.9-6.6h-12.6l-1.9,6.6H126.8z M139.2,71.3h8.8l-4.4-15.8
			L139.2,71.3z"/>
		<path class="st1" d="M164.1,85V44.3h13.8c11.1,0,15.3,6.1,15.3,13.9c0,5.7-2.3,10-8.1,11.8l8.7,15h-9.4l-7.5-13.9h-4.2V85H164.1z
			 M172.6,64.2h4.9c5.4,0,6.6-2.8,6.6-6c0-3.5-1.1-6.2-6.6-6.2h-4.9V64.2z"/>
		<path class="st1" d="M195.6,85l11.6-40.7h10.3L229.2,85h-8.6l-1.9-6.6h-12.6l-1.9,6.6H195.6z M208,71.3h8.8l-4.4-15.8L208,71.3z"
			/>
		<path class="st1" d="M243.8,44.3l11.4,25.5V44.3h8.6V85h-10.9l-11.4-25.5V85h-8.6V44.3H243.8z"/>
		<g>
			<polygon class="st1" points="292.3,38.4 283.7,38.4 280.9,44.3 288,44.3 			"/>
			<path class="st1" d="M289.4,44.3H288l-1.6,2.3h-6.5l1.1-2.3h-1.9L267.4,85h8.6l1.9-6.6h12.6l1.9,6.6h8.6L289.4,44.3z M279.8,71.3
				l4.4-15.8l4.4,15.8H279.8z"/>
		</g>
	</g>
</g>
</svg>
