<?xml version="1.0" encoding="UTF-8"?>
<!DOCTYPE svg PUBLIC "-//W3C//DTD SVG 1.1//EN" "http://www.w3.org/Graphics/SVG/1.1/DTD/svg11.dtd">
<!-- Creator: CorelDRAW X7 -->
<svg xmlns="http://www.w3.org/2000/svg" xml:space="preserve" width="1.67567cm" height="1.40335cm" version="1.1" style="shape-rendering:geometricPrecision; text-rendering:geometricPrecision; image-rendering:optimizeQuality; fill-rule:evenodd; clip-rule:evenodd"
viewBox="0 0 325 272"
 xmlns:xlink="http://www.w3.org/1999/xlink">
 <defs>
  <style type="text/css">
   <![CDATA[
    .fil0 {fill:#7DA257}
   ]]>
  </style>
 </defs>
 <g id="Capa_x0020_1">
  <metadata id="CorelCorpID_0Corel-Layer"/>
  <path class="fil0" d="M292 180c-11,0 -19,-9 -19,-19 0,-10 8,-19 19,-19 10,0 19,9 19,19 0,10 -9,19 -19,19zm-135 32c10,4 19,12 25,21 10,-10 15,-24 15,-39 0,-34 -27,-61 -60,-61 -34,0 -61,27 -61,61 0,15 6,29 15,40 6,-10 15,-18 26,-22 -8,-6 -13,-16 -13,-27 0,-18 14,-33 33,-33 18,0 33,15 33,33 0,11 -5,21 -13,27zm9 34c-5,-10 -16,-17 -29,-17 -13,0 -24,7 -30,18 9,4 19,7 30,7 10,0 20,-3 29,-8zm-29 -81c11,0 20,9 20,20 0,12 -9,21 -20,21 -12,0 -21,-9 -21,-21 0,-11 9,-20 21,-20zm-104 -52c-10,0 -19,-9 -19,-19 0,-11 9,-19 19,-19 10,0 19,8 19,19 0,10 -9,19 -19,19zm85 -80c0,-10 8,-19 19,-19 10,0 18,9 18,19 0,10 -8,19 -18,19 -11,0 -19,-9 -19,-19zm110 42c11,0 19,8 19,19 0,10 -8,19 -19,19 -10,0 -19,-9 -19,-19 0,-11 9,-19 19,-19zm22 141c11,0 19,9 19,19 0,10 -8,19 -19,19 -10,0 -19,-9 -19,-19 0,-10 9,-19 19,-19zm42 -88c-18,0 -33,15 -33,33 0,1 0,1 0,2l-46 12c-4,-14 -11,-26 -21,-36l18 -18c5,4 12,6 18,6 18,0 33,-15 33,-33 0,-18 -15,-33 -33,-33 -18,0 -33,15 -33,33 0,6 2,12 5,17l-18 18c-11,-7 -24,-12 -38,-13l0 -51c14,-3 26,-16 26,-32 0,-18 -15,-33 -33,-33 -19,0 -33,15 -33,33 0,16 11,29 26,32l0 51c-17,1 -32,8 -44,18l-25 -23c3,-5 5,-11 5,-17 0,-18 -15,-33 -33,-33 -18,0 -33,15 -33,33 0,18 15,33 33,33 7,0 13,-2 19,-6l24 23c-20,24 -23,51 -14,74 8,27 37,54 75,54 28,0 53,-15 67,-38l13 2c1,18 15,32 33,32 18,0 33,-15 33,-33 0,-18 -15,-33 -33,-33 -13,0 -25,8 -30,20l-10 -1c3,-9 5,-18 5,-27 0,-2 0,-3 0,-5l48 -13c5,11 16,18 29,18 18,0 33,-15 33,-33 0,-18 -15,-33 -33,-33z"/>
 </g>
</svg>
