<?xml version="1.0" encoding="UTF-8"?>
<!DOCTYPE svg PUBLIC "-//W3C//DTD SVG 1.1//EN" "http://www.w3.org/Graphics/SVG/1.1/DTD/svg11.dtd">
<!-- Creator: CorelDRAW X7 -->
<svg xmlns="http://www.w3.org/2000/svg" xml:space="preserve" width="1.3506cm" height="1.07105cm" version="1.1" style="shape-rendering:geometricPrecision; text-rendering:geometricPrecision; image-rendering:optimizeQuality; fill-rule:evenodd; clip-rule:evenodd"
viewBox="0 0 212 168"
 xmlns:xlink="http://www.w3.org/1999/xlink">
 <defs>
  <style type="text/css">
   <![CDATA[
    .fil0 {fill:#7DA257}
   ]]>
  </style>
 </defs>
 <g id="Capa_x0020_1">
  <metadata id="CorelCorpID_0Corel-Layer"/>
  <path class="fil0" d="M201 62c-3,0 -6,-1 -8,-4 -2,-1 -31,-36 -87,-36 -56,0 -85,35 -87,36 -3,5 -10,6 -15,2 -5,-4 -5,-11 -2,-16 2,-2 37,-44 104,-44 67,0 102,42 104,44 3,5 3,12 -2,16 -2,1 -4,2 -7,2zm-95 62c12,0 22,10 22,22 0,12 -10,22 -22,22 -12,0 -22,-10 -22,-22 0,-12 10,-22 22,-22zm40 -3c-3,0 -6,-2 -8,-5 -16,-17 -43,-18 -60,-3 -2,1 -3,2 -4,3 -3,5 -10,6 -15,2 -5,-3 -6,-10 -2,-15 23,-27 64,-30 91,-7 2,2 5,4 7,7 4,5 3,12 -2,15 -2,2 -4,3 -7,3zm29 -30c-3,0 -6,-1 -8,-4 -16,-16 -38,-25 -61,-25 -23,0 -45,9 -61,25 -4,5 -11,5 -15,1 -5,-3 -5,-10 -2,-15 20,-21 49,-33 78,-33 30,0 58,12 78,33 4,5 3,12 -2,16 -2,1 -4,2 -7,2z"/>
 </g>
</svg>
