<svg xmlns="http://www.w3.org/2000/svg" viewBox="0 0 529.48 423"><defs><style>.cls-1{fill:#f05d36;}.cls-1,.cls-2{fill-rule:evenodd;}.cls-2{fill:#7ca157;}</style></defs><title>Recurso 2</title><g id="Capa_2" data-name="Capa 2"><g id="Capa_1-2" data-name="Capa 1"><path class="cls-1" d="M456.66,0h5.79A42.72,42.72,0,0,1,502.3,45a179.62,179.62,0,0,0-84.72.27,42.06,42.06,0,0,1,10.15-30.51A43.54,43.54,0,0,1,456.66,0Z"/><path class="cls-2" d="M116.66,63.65a185.73,185.73,0,0,1,112.42-7.43,183.76,183.76,0,0,1,85.48,48,200,200,0,0,0-48.09,111.41q-55.83,56-111.83,111.79a97.64,97.64,0,0,0,49.22,2.78,95.66,95.66,0,0,0,50.95-28.38c9.22-11.07,15.07-24.45,20.54-37.65,1.29-3.68,3.3-7.2,3.71-11.12.48-17-1.42-34.16,1.06-51.09,5.84-29.71,16.26-59.45,36.06-82.84a186.23,186.23,0,0,1,90.68-58.41c33-9.63,68.5-9.39,101.77-1.17,7.09,1.88,14.23,3.88,20.85,7.11-.27,34.16-.06,68.33-.11,102.5-6.75-8.47-16.1-14.4-25.95-18.65-17.7-7.44-37.34-10.7-56.46-8.41a100.76,100.76,0,0,0-68.19,39.72A94.12,94.12,0,0,0,359.93,238q.24,92.48.51,185H279.1c0-9.64,0-19.29,0-28.93A184.59,184.59,0,0,1,18,315a188.71,188.71,0,0,1-18-73.5v-12c1.4-37.54,14-74.69,36.69-104.72a184.61,184.61,0,0,1,80-61.11Zm32.6,81.66h0A96.77,96.77,0,0,0,92.52,265.13q60.95-60.88,121.87-121.78A97.06,97.06,0,0,0,149.26,145.31Z"/></g></g></svg>