<svg xmlns="http://www.w3.org/2000/svg" viewBox="0 0 1090.7 289.65"><defs><style>.cls-1{fill:#7ca157;}.cls-1,.cls-2{fill-rule:evenodd;}.cls-2{fill:#00aeee;}.cls-3{fill:#696b6c;}</style></defs><title>Recurso 1</title><g id="Capa_2" data-name="Capa 2"><g id="Capa_1-2" data-name="Capa 1"><path class="cls-1" d="M315.24,20.94c10.71-1.18,21.43-2.2,32.13-3.5.27,12.38,0,24.76.12,37.14,12,0,24,0,36,0,0,9.26,0,18.53,0,27.79-12.11.1-24.22-.12-36.33.11.15,19.2-.05,38.41.1,57.62,0,6.2,2.85,13,8.83,15.61,7.68,3.37,16.41,1,23.7-2.27,3,9.17,6,18.32,9,27.5a74.62,74.62,0,0,1-40,4.65c-9.41-1.69-18.44-6.53-24.22-14.26-7-9.13-9.29-20.9-9.32-32.15,0-18.91,0-37.82,0-56.73-8.14-.15-16.27,0-24.4-.07,0-9.27,0-18.53,0-27.8q12.17,0,24.34,0C315.24,43.37,315.13,32.16,315.24,20.94ZM50.57,52.42C34.85,55.9,20.27,65.18,11.38,78.73.19,95.43-2.12,116.8,1.73,136.2c3,15.28,11.37,29.7,24.14,38.82C41.29,186.19,61.14,189.51,79.8,188c17.6-1.68,35.48-8,48.11-20.78-6.88-6.8-13.69-13.66-20.66-20.35-7.32,6.91-17.37,10-27.12,11.53-11.61,1.53-24.2.11-34.08-6.59a29.7,29.7,0,0,1-12.71-20.64c34,0,68,0,102,0,1.47-16.87.37-34.68-7.59-50a54.5,54.5,0,0,0-31.34-26.6,87.42,87.42,0,0,0-45.86-2.12Zm25.21,26.8c7.9.73,16,3.45,21.55,9.38,4.08,4.27,6.26,10,7.08,15.78q-35.28,0-70.55,0A33.6,33.6,0,0,1,46.52,85.93h0C54.92,79.93,65.68,78.24,75.78,79.22ZM534.46,62.93C520,73,510.85,89.68,508.55,107c-2.34,17.78.26,36.8,10.05,52.11,7.56,12,19.65,20.69,33,25a92.33,92.33,0,0,0,46.55,2.22c13.84-2.94,27.41-9,37.43-19.2-6.87-6.79-13.72-13.59-20.62-20.35-7.54,7-17.8,10.18-27.79,11.62-11.58,1.41-24.14-.13-33.89-7A29.73,29.73,0,0,1,541,131.14q42.87,0,85.74,0c5.38-.22,11,.45,16.26-.31,1.82-19-.1-39.61-11.21-55.75-8.73-12.88-23.35-20.8-38.5-23.34-20-3.42-42-.81-58.85,11.2ZM583.8,79.25c7.85.77,15.9,3.55,21.36,9.48,4,4.26,6.14,9.93,7,15.65q-35.26,0-70.54,0a33.65,33.65,0,0,1,12.78-18.53h0C562.83,79.86,573.66,78.21,583.8,79.25Zm-148.41-9.9c-.8-5-1.56-10-2.38-15-10,0-19.94,0-29.9,0q0,65.28,0,130.56,16.14,0,32.29,0,0-32.39,0-64.76c-.33-9.19.78-19.15,6.85-26.49,7.42-9.25,20.28-11.78,31.53-10.39,6.61.61,12.51,4,17.58,8.07,4.79-9.38,9.7-18.69,14.51-28.06-12.71-11.71-31.6-14.63-48.05-10.88C448.32,54.54,440.47,61.2,435.39,69.35ZM185.93,71.78c-.73-5.91-1.4-11.82-2.14-17.73q-14.41,0-28.84,0,0,65.41,0,130.84h32c0-22.25,0-44.49,0-66.74-.06-10.62,4.05-21.49,12.1-28.61,11.31-10.25,30.38-10.79,42-.78,7.71,6.77,10.8,17.39,10.82,27.37q0,34.38,0,68.76c10.73,0,21.46-.07,32.19.05.2-23.27.05-46.54.07-69.8-.08-17.51-5.3-35.9-18.15-48.37-12.49-12.39-31.43-17-48.46-13.44C205.3,55.82,194.71,63.18,185.93,71.78Z"/><path class="cls-2" d="M781.29,10.09c1.2-3.28,1.58-7,3.29-10,11.52-.13,23,0,34.57,0-5.78,13.37-13.33,26-19.71,39.12-8.8.15-17.61,0-26.4.06C775.17,29.36,778.62,19.82,781.29,10.09Zm-87.1,59.29q-1.16-7.53-2.35-15h-30q0,65.3,0,130.58c10.77,0,21.55,0,32.32,0q0-34.87,0-69.75c0-9,2.84-18.59,9.86-24.66,8-7,19.48-8.53,29.72-7,6.17.77,11.55,4.11,16.36,7.86,4.79-9.36,9.68-18.67,14.52-28C752,51.53,733,48.62,716.52,52.42,707.05,54.6,699.22,61.24,694.19,69.38Zm296,48.2c12,10.14,28.21,13.2,43.48,14.41,6.93.63,14.36.95,20.44,4.74,4.86,3,5.79,10.07,3,14.79-3,5.08-8.66,7.82-14.2,9.06-8.25,1.75-16.77.14-24.77-2.07-10.28-3.06-20.46-7.66-28.08-15.4q-7.9,11.52-15.84,23a71.77,71.77,0,0,0,43.31,22.22c18,2.17,37.57,1.79,53.57-7.77a39.89,39.89,0,0,0,19.65-31.18v-6.53c-.75-7.22-2.74-14.55-7.35-20.3-6.18-7.93-15.77-12.27-25.31-14.65-8.56-2.16-17.38-2.83-26.14-3.51-6.17-.68-12.8-1.65-17.74-5.73a10.8,10.8,0,0,1-1.58-14.59c2.7-3.36,7-4.88,11.07-5.76,14.89-2.71,31.73-.22,43,10.64q9-10.56,18-21.14a67.64,67.64,0,0,0-20.25-12.43c-11.63-4.37-24.29-5.23-36.6-4.56-14,1.13-28.67,5.3-39,15.38C974.88,79.62,975.16,105.07,990.18,117.58ZM881.28,52.92C862.77,56,845.81,67.63,836.74,84.13c-9.66,17.15-11.4,38.21-6.07,57,4.16,14.76,13.6,28.12,26.67,36.29,15.62,9.91,35.17,12.27,53.16,9,15.76-2.84,30.54-11.55,40-24.6,11.78-16,15.41-37.21,11.7-56.57C959.08,89.09,950,74,936.52,64.37c-15.72-11.45-36.33-14.82-55.24-11.45Zm38.38,38.26c13.55,13.76,15,37.13,4.17,52.92-9.43,14.16-29.75,17.66-44.55,10.49-8.26-4-14.27-11.77-17-20.41-4.68-14.45-2.2-31.78,8.46-43a32.68,32.68,0,0,1,20.14-9.82h0A34,34,0,0,1,919.66,91.18Zm-147.3,93.73c11.29,0,22.59,0,33.89,0q0-63,0-126.08c-11.3,0-22.59,0-33.87,0Q772.35,121.88,772.36,184.91Z"/><path class="cls-3" d="M9.68,242.67H24.21c13,0,20.89,3.39,20.89,12.86,0,9-7.7,13.44-20.54,13.44H13.71v19.84h-4Zm13.86,23.58c11.78,0,17.41-3.13,17.41-10.72s-5.84-10.14-17.76-10.14H13.71v20.86Zm45.78-.66c0-14.6,9.89-23.76,23.75-23.76s23.75,9.17,23.75,23.76-9.89,24.06-23.75,24.06S69.32,280.2,69.32,265.59Zm43.28,0c0-12.79-7.82-20.83-19.53-20.83s-19.53,8-19.53,20.83,7.82,21.13,19.53,21.13S112.6,278.39,112.6,265.59Zm32.8-22.92h16.48c11.46,0,19,3.36,19,12.18,0,8.41-7.51,12.77-19,12.77H149.42v21.19h-4Zm15.43,22.24c10.2,0,15.87-3.24,15.87-10.06s-5.67-9.46-15.87-9.46H149.42v19.52Zm.15,1.77,3.85-.92L182,288.81h-4.67Zm58.79-21.23H201.41v-2.78h40.74v2.78H223.79v43.36h-4Zm57.75-2.78h4l20.32,46.14h-4.27l-11.51-27.16c-2.35-5.48-4.38-10.32-6.41-15.94h-.35c-2,5.63-4,10.46-6.39,15.94l-11.67,27.16H257.2Zm-11,27.61h25.85V273H266.48Zm59.78-27.61h4V286h26.56v2.77H326.26Zm85.27,23c0-14.63,10-23.82,24.64-23.82a22.14,22.14,0,0,1,15,5.52l-2.36,2.16a18.25,18.25,0,0,0-12.6-4.75c-12.64,0-20.46,8.05-20.46,20.85s7.73,21.11,20.12,21.11A20.54,20.54,0,0,0,450.45,281l2.36,2a23.62,23.62,0,0,1-17.15,6.6C421.46,289.65,411.53,280.31,411.53,265.65Zm68.38-23h4v46.14h-4ZM516,271.11V242.67h4v28.08c0,12.28,7.19,16,15.35,16,8.31,0,15.67-3.69,15.67-16V242.67h3.82v28.44c0,14.41-9.56,18.54-19.49,18.54S516,285.52,516,271.11Zm71-28.44h13.34c17.79,0,26.23,9,26.23,22.92s-8.44,23.22-26.15,23.22H587Zm12.93,43.41c15.63,0,22.42-8.46,22.42-20.49s-6.79-20.19-22.42-20.19H591v40.68Zm66.87-43.41h4l20.31,46.14h-4.27l-11.51-27.16C673,256.17,671,251.33,669,245.71h-.35c-2,5.63-4,10.46-6.38,15.94l-11.68,27.16h-4Zm-11,27.61h25.85V273H655.76Zm59.78-27.61h13.33c17.8,0,26.24,9,26.24,22.92s-8.44,23.22-26.15,23.22H715.54Zm12.93,43.41c15.63,0,22.42-8.46,22.42-20.49s-6.79-20.19-22.42-20.19h-8.91v40.68Zm66.87-43.41h4l20.32,46.14h-4.27L803.9,261.65c-2.35-5.48-4.38-10.32-6.41-15.94h-.35c-2,5.63-4,10.46-6.39,15.94l-11.67,27.16H775Zm-11,27.61h25.85V273H784.3Zm59.78-27.61h4.21l24.26,32.53,6.52,9.21h.35c-.22-4.52-.5-9-.5-13.45V242.67h3.79v46.14H878.5l-24.26-32.53-6.52-9.21h-.35c.22,4.42.5,8.61.5,13.08v28.66h-3.79Zm67.25,22.92c0-14.6,9.88-23.76,23.74-23.76s23.75,9.17,23.75,23.76-9.89,24.06-23.75,24.06S911.33,280.2,911.33,265.59Zm43.27,0c0-12.79-7.82-20.83-19.53-20.83s-19.53,8-19.53,20.83,7.83,21.13,19.53,21.13S954.6,278.39,954.6,265.59Z"/></g></g></svg>