<svg xmlns="http://www.w3.org/2000/svg" viewBox="0 0 1700 423"><defs><style>.cls-1{fill:#f05d36;}.cls-1,.cls-2,.cls-3{fill-rule:evenodd;}.cls-2{fill:#7ca157;}.cls-3{fill:#00aeee;}.cls-4{fill:#696b6c;}</style></defs><title>Recurso 2</title><g id="Capa_2" data-name="Capa 2"><g id="Capa_1-2" data-name="Capa 1"><path class="cls-1" d="M456.66,0h5.79A42.72,42.72,0,0,1,502.3,45a179.62,179.62,0,0,0-84.72.27,42.06,42.06,0,0,1,10.15-30.51A43.54,43.54,0,0,1,456.66,0Z"/><path class="cls-2" d="M116.66,63.65a185.73,185.73,0,0,1,112.42-7.43,183.76,183.76,0,0,1,85.48,48,200,200,0,0,0-48.09,111.41q-55.83,56-111.83,111.79a97.64,97.64,0,0,0,49.22,2.78,95.66,95.66,0,0,0,50.95-28.38c9.22-11.07,15.07-24.45,20.54-37.65,1.29-3.68,3.3-7.2,3.71-11.12.48-17-1.42-34.16,1.06-51.09,5.84-29.71,16.26-59.45,36.06-82.84a186.23,186.23,0,0,1,90.68-58.41c33-9.63,68.5-9.39,101.77-1.17,7.09,1.88,14.23,3.88,20.85,7.11-.27,34.16-.06,68.33-.11,102.5-6.75-8.47-16.1-14.4-25.95-18.65-17.7-7.44-37.34-10.7-56.46-8.41a100.76,100.76,0,0,0-68.19,39.72A94.12,94.12,0,0,0,359.93,238q.24,92.48.51,185H279.1c0-9.64,0-19.29,0-28.93A184.59,184.59,0,0,1,18,315a188.71,188.71,0,0,1-18-73.5v-12c1.4-37.54,14-74.69,36.69-104.72a184.61,184.61,0,0,1,80-61.11Zm32.6,81.66h0A96.77,96.77,0,0,0,92.52,265.13q60.95-60.88,121.87-121.78A97.06,97.06,0,0,0,149.26,145.31Z"/><path class="cls-2" d="M924.54,107.79c10.71-1.18,21.43-2.2,32.13-3.5.27,12.38,0,24.76.12,37.14,12,0,24,0,36,0,0,9.26,0,18.53,0,27.79-12.11.1-24.22-.12-36.33.11.15,19.2-.05,38.41.1,57.62,0,6.2,2.85,13,8.83,15.61,7.68,3.37,16.41,1,23.7-2.27,3,9.17,6,18.32,9,27.5a74.62,74.62,0,0,1-40,4.65c-9.41-1.69-18.44-6.53-24.22-14.26-7-9.13-9.29-20.9-9.32-32.15,0-18.91,0-37.82,0-56.73-8.14-.15-16.27,0-24.4-.07,0-9.27,0-18.53,0-27.8q12.17,0,24.34,0C924.54,130.22,924.43,119,924.54,107.79ZM659.87,139.27c-15.72,3.48-30.3,12.76-39.19,26.31-11.19,16.7-13.5,38.07-9.65,57.47,3,15.28,11.37,29.7,24.14,38.82,15.42,11.17,35.27,14.49,53.93,12.95,17.6-1.68,35.48-8,48.11-20.78-6.88-6.8-13.69-13.66-20.66-20.35-7.32,6.91-17.37,10-27.12,11.53-11.61,1.53-24.2.11-34.08-6.59A29.7,29.7,0,0,1,642.64,218c34-.05,68,0,102,0,1.47-16.87.37-34.68-7.59-50a54.5,54.5,0,0,0-31.34-26.6,87.42,87.42,0,0,0-45.86-2.12Zm25.21,26.8c7.9.73,16,3.45,21.55,9.38,4.08,4.27,6.26,10,7.08,15.78q-35.28,0-70.55,0a33.6,33.6,0,0,1,12.66-18.45h0C664.22,166.78,675,165.09,685.08,166.07Zm458.68-16.29c-14.49,10.09-23.61,26.75-25.91,44.11-2.34,17.78.26,36.8,10.05,52.11,7.56,12,19.65,20.69,33,25a92.33,92.33,0,0,0,46.55,2.22c13.84-2.94,27.41-9,37.43-19.2-6.87-6.79-13.72-13.59-20.62-20.35-7.54,7-17.8,10.18-27.79,11.62-11.58,1.41-24.14-.13-33.89-7A29.73,29.73,0,0,1,1150.32,218q42.87,0,85.74,0c5.38-.22,11,.45,16.26-.31,1.82-19-.1-39.61-11.21-55.75-8.73-12.88-23.35-20.8-38.5-23.34-20-3.42-42-.81-58.85,11.2Zm49.34,16.32c7.85.77,15.9,3.55,21.36,9.48,4,4.26,6.14,9.93,7,15.65q-35.27,0-70.54,0a33.65,33.65,0,0,1,12.78-18.53h0C1172.13,166.71,1183,165.06,1193.1,166.1Zm-148.41-9.9c-.8-5-1.56-10-2.38-15-10,0-19.94,0-29.9,0q0,65.28,0,130.56,16.14,0,32.29,0,0-32.38,0-64.76c-.33-9.19.78-19.15,6.85-26.49,7.42-9.25,20.28-11.78,31.53-10.39,6.61.61,12.51,4,17.58,8.07,4.79-9.38,9.7-18.69,14.51-28.06-12.71-11.71-31.6-14.63-48.05-10.88C1057.62,141.39,1049.77,148.05,1044.69,156.2Zm-249.46,2.43c-.73-5.91-1.4-11.82-2.14-17.73q-14.42,0-28.84,0,0,65.42,0,130.84h32c0-22.25,0-44.49,0-66.74-.06-10.62,4.05-21.49,12.1-28.61,11.31-10.25,30.38-10.79,42-.78,7.71,6.77,10.8,17.39,10.82,27.37q0,34.38,0,68.76c10.73,0,21.46-.07,32.19.05.2-23.27.05-46.54.07-69.8-.08-17.51-5.3-35.9-18.15-48.37-12.49-12.39-31.43-17-48.46-13.44C814.6,142.67,804,150,795.23,158.63Z"/><path class="cls-3" d="M1390.59,96.94c1.2-3.28,1.58-7,3.29-10,11.52-.13,23,0,34.57,0-5.78,13.37-13.33,26-19.71,39.12-8.8.15-17.61,0-26.4.06C1384.47,116.21,1387.92,106.67,1390.59,96.94Zm-87.1,59.29q-1.15-7.53-2.35-15-15,0-30,0,0,65.3,0,130.58c10.77,0,21.55,0,32.32,0q0-34.87,0-69.75c0-9,2.84-18.59,9.86-24.66,8-7,19.48-8.53,29.72-7.05,6.17.77,11.55,4.11,16.36,7.86,4.79-9.36,9.68-18.67,14.52-28-12.72-11.76-31.69-14.67-48.16-10.87C1316.35,141.45,1308.52,148.09,1303.49,156.23Zm296,48.2c12,10.14,28.21,13.2,43.48,14.41,6.93.63,14.36.95,20.44,4.74,4.86,3,5.79,10.07,3,14.79-3,5.08-8.66,7.82-14.2,9.06-8.25,1.75-16.77.14-24.77-2.07-10.28-3.06-20.46-7.66-28.08-15.4q-7.9,11.52-15.84,23a71.77,71.77,0,0,0,43.31,22.22c18,2.17,37.57,1.79,53.57-7.77A39.89,39.89,0,0,0,1700,236.24v-6.53c-.75-7.22-2.74-14.55-7.35-20.3-6.18-7.93-15.77-12.27-25.31-14.65-8.56-2.16-17.38-2.83-26.14-3.51-6.17-.68-12.8-1.65-17.74-5.73a10.8,10.8,0,0,1-1.58-14.59c2.7-3.36,7-4.88,11.07-5.76,14.89-2.71,31.73-.22,43,10.64q9-10.56,18-21.14a67.64,67.64,0,0,0-20.25-12.43c-11.63-4.37-24.29-5.23-36.6-4.56-14,1.13-28.67,5.3-39,15.38C1584.18,166.47,1584.46,191.92,1599.48,204.43Zm-108.9-64.66c-18.51,3.12-35.47,14.71-44.54,31.21-9.66,17.15-11.4,38.21-6.07,57,4.16,14.76,13.6,28.12,26.67,36.29,15.62,9.91,35.17,12.27,53.16,9,15.76-2.84,30.54-11.55,40-24.6,11.78-16,15.41-37.21,11.7-56.57-3.08-16.18-12.18-31.29-25.64-40.9-15.72-11.45-36.33-14.82-55.24-11.45ZM1529,178c13.55,13.76,15,37.13,4.17,52.92-9.43,14.16-29.75,17.66-44.55,10.49-8.26-4-14.27-11.77-17-20.41-4.68-14.45-2.2-31.78,8.46-43a32.68,32.68,0,0,1,20.14-9.82h0A34,34,0,0,1,1529,178Zm-147.3,93.73c11.29,0,22.59,0,33.89,0q0-63,0-126.08c-11.3,0-22.59,0-33.87,0Q1381.65,208.73,1381.66,271.76Z"/><path class="cls-4" d="M617.21,328H636.8c12.55,0,22.67,3.59,22.67,14.68,0,10.72-10.23,15.46-22.32,15.46h-7v15.49H617.21Zm19.18,22c7.09,0,10.44-2.52,10.44-7.27S643,336.22,636,336.22H630.1V350Z"/><path class="cls-4" d="M682,350.64c0-14.9,10.52-23.45,25.9-23.45s25.9,8.6,25.9,23.45-10.53,23.86-25.9,23.86S682,365.55,682,350.64Zm38.58,0c0-9.14-4.9-14.55-12.68-14.55s-12.69,5.41-12.69,14.55,4.91,14.95,12.69,14.95S720.56,359.79,720.56,350.64Z"/><path class="cls-4" d="M759.83,328h20.54c12.1,0,22,3.36,22,14.21,0,10.48-9.91,15-22,15h-7.64v16.42h-12.9Zm19.49,21c6.78,0,10.43-2.33,10.43-6.81s-3.65-6-10.43-6h-6.59v12.83ZM778,354.52l8.92-6.6,18.2,25.74H790.7Z"/><path class="cls-4" d="M838.37,336.68h-15.7V328H867v8.65H851.26v37H838.37Z"/><path class="cls-4" d="M898.28,328h15.43l17.91,45.63H918l-7.47-23.11c-1.58-4.57-3.1-10-4.63-14.72h-.35c-1.38,4.82-2.9,10.15-4.48,14.72l-7.49,23.11H880.37Zm-6.1,26.74h27.44v8H892.18Z"/><path class="cls-4" d="M952.42,328h12.9v37h22.5v8.66h-35.4Z"/><path class="cls-4" d="M1043.17,351.11c0-15.14,12.51-23.92,26.92-23.92a27.12,27.12,0,0,1,17.15,5.92l-6.79,6.62a16.08,16.08,0,0,0-10.07-3.64c-7.82,0-14,5.52-14,14.67,0,9.38,5.45,14.83,13.79,14.83a16.69,16.69,0,0,0,11.15-4.27l6.8,6.48c-4.74,4.41-11,6.7-18.42,6.7C1055.25,374.5,1043.17,366.47,1043.17,351.11Z"/><path class="cls-4" d="M1112.11,328H1125v45.63h-12.89Z"/><path class="cls-4" d="M1153.44,352.51V328h12.89v25.54c0,8.93,3.52,12,9.9,12s10.1-3.09,10.1-12V328h12.43v24.48c0,15.32-7.78,22-22.53,22S1153.44,367.83,1153.44,352.51Z"/><path class="cls-4" d="M1227.26,328h16.12c17.41,0,28.64,6.93,28.64,22.61s-11.23,23-27.92,23h-16.84Zm15.34,37.32c9.67,0,16.2-3.79,16.2-14.71s-6.53-14.31-16.2-14.31h-2.45v29Z"/><path class="cls-4" d="M1307.87,328h15.42l17.91,45.63h-13.64l-7.46-23.11c-1.59-4.57-3.11-10-4.63-14.72h-.35c-1.38,4.82-2.9,10.15-4.49,14.72l-7.49,23.11H1290Zm-6.1,26.74h27.43v8h-27.43Z"/><path class="cls-4" d="M1362,328h16.12c17.41,0,28.64,6.93,28.64,22.61s-11.23,23-27.92,23H1362Zm15.34,37.32c9.67,0,16.2-3.79,16.2-14.71s-6.53-14.31-16.2-14.31h-2.45v29Z"/><path class="cls-4" d="M1442.62,328H1458L1476,373.66h-13.64l-7.46-23.11c-1.59-4.57-3.11-10-4.63-14.72h-.35c-1.38,4.82-2.9,10.15-4.49,14.72l-7.49,23.11h-13.18Zm-6.1,26.74H1464v8h-27.43Z"/><path class="cls-4" d="M1496.76,328H1510l14.88,22.69,5.64,10h.35c-.61-4.82-1.65-11.21-1.65-16.59V328h12.29v45.63h-13.22l-14.88-22.76-5.64-10h-.35c.61,5,1.65,11.14,1.65,16.52v16.2h-12.28Z"/><path class="cls-4" d="M1567.56,350.64c0-14.9,10.52-23.45,25.9-23.45s25.9,8.6,25.9,23.45-10.52,23.86-25.9,23.86S1567.56,365.55,1567.56,350.64Zm38.59,0c0-9.14-4.91-14.55-12.69-14.55s-12.69,5.41-12.69,14.55,4.91,14.95,12.69,14.95S1606.15,359.79,1606.15,350.64Z"/></g></g></svg>