<?xml version="1.0" encoding="utf-8"?>
<!-- Generator: Adobe Illustrator 24.0.0, SVG Export Plug-In . SVG Version: 6.00 Build 0)  -->
<svg version="1.1" id="Capa_1" xmlns="http://www.w3.org/2000/svg" xmlns:xlink="http://www.w3.org/1999/xlink" x="0px" y="0px"
	 viewBox="0 0 597 156" style="enable-background:new 0 0 597 156;" xml:space="preserve">
<style type="text/css">
	.st0{fill:#FEFEFE;}
</style>
<g id="Capa_x0020_1">
	<g id="_484242301424">
		<g>
			<g>
				<path class="st0" d="M207,95c1,6,6,10,15,10c4,0,10-1,13-4l7,7c-5,6-13,8-20,8c-17,0-27-10-27-25s10-26,26-26s26,10,24,30H207z
					 M234,85L234,85c-1-6-6-9-13-9c-6,0-12,3-13,9H234z"/>
				<path class="st0" d="M288,115V90c0-8-4-13-12-13c-7,0-12,6-12,13v25h-12V67h11l1,6c5-5,9-7,16-7c11,0,20,9,20,24v25H288z"/>
				<path class="st0" d="M323,53v14h14v10h-14v21c0,5,3,7,6,7c2,0,4-1,6-2l4,10c-4,2-7,2-10,3c-11,0-18-6-18-18V77h-9V67h9V54
					L323,53z"/>
				<path class="st0" d="M355,67l1,5c3-6,8-6,13-6s10,1,13,4l-6,10c-2-2-4-3-8-3c-7,0-12,4-12,13v25h-12V67H355z"/>
				<path class="st0" d="M395,95c0,6,6,10,14,10c4,0,10-1,13-4l8,7c-6,6-14,8-21,8c-17,0-27-10-27-25s10-26,26-26s26,10,24,30H395z
					 M421,85L421,85c-1-6-6-9-13-9c-6,0-11,3-13,9H421z"/>
				<path class="st0" d="M450,67l1,5c4-6,9-6,14-6s9,1,12,4l-5,10c-3-2-5-3-9-3c-6,0-12,4-12,13v25h-12V67H450z"/>
				<path class="st0" d="M480,115V68h12v47H480z M497,47L497,47h-13l-4,14l0,0h10L497,47L497,47z"/>
				<path class="st0" d="M550,91c0,14-9,25-25,25c-15,0-25-11-25-25s10-25,25-25C541,66,550,77,550,91z M512,91L512,91
					c0,7,5,14,13,14c9,0,13-7,13-14s-5-14-13-14S512,84,512,91z"/>
				<path class="st0" d="M588,80c-3-4-7-5-12-5s-8,2-8,5s3,5,9,5c9,1,20,3,20,16c0,8-7,16-20,16c-8,0-16-2-23-9l6-9c4,4,11,7,17,7
					c4,0,8-2,8-6c0-3-2-4-9-5c-9,0-20-4-20-15s12-15,20-15s13,2,19,7L588,80z"/>
			</g>
			<g>
				<path class="st0" d="M169,20c-21,0-40,9-52,24c-7,8-11,18-14,30c-1,4,0,14,0,14v6c0,0-5,13-10,18c-10,10-24,13-36,9l0,0l41-41
					c2-16,8-30,18-42c-4-3-8-7-13-9c-10-7-23-10-35-10c-17,0-35,6-48,20C8,50,2,66,0,81c0,2,0,4,0,6c0,12,3,24,10,35c3,5,6,9,10,13
					s8,7,13,10c21,13,48,13,70,0v11h30c0,0,0-67,0-68c0-20,17-36,36-36c10,0,21,4,26,10V24C188,21,178,20,169,20z M32,87L32,87
					c0-2,1-4,1-6c1-7,4-14,10-19c7-7,16-11,25-11c4,0,7,1,11,2L34,98C33,94,32,90,32,87z"/>
				<path class="st0" d="M170,15c5,0,10,0,15,2c0-1,0-1,0-1c0-9-6-16-15-16s-16,7-16,15c0,1,0,1,0,2C159,15,164,15,170,15z"/>
			</g>
		</g>
		<g>
			<path class="st0" d="M218,136c-2-2-5-3-7-3c-7,0-10,5-10,10s3,10,10,10c2,0,5-1,6-3v-6h-7v-1h9v8c-2,2-5,4-8,4c-8,0-12-6-12-12
				c0-7,5-11,12-11c3,0,6,1,8,3L218,136z"/>
			<path class="st0" d="M255,143c0,6-4,12-11,12c-8,0-12-6-12-12s4-11,12-11C251,132,255,137,255,143z M234,143L234,143
				c0,5,3,10,10,10c6,0,9-5,9-10s-3-10-9-10C237,133,234,138,234,143z"/>
			<path class="st0" d="M285,138c0,2-1,4-4,5c3,1,5,3,5,5c0,5-5,6-8,6c-4,0-6,0-9,0v-22c3,0,5,0,9,0C281,132,285,134,285,138z
				 M270,142L270,142h8c3,0,5-1,5-4s-3-5-5-5h-8V142z M270,153L270,153h8c2,0,6-1,6-5c0-3-3-4-6-4s-5,0-8,0V153z"/>
			<path class="st0" d="M299,154v-22h2v22H299z"/>
			<path class="st0" d="M317,142h13v2h-13v9h14v1h-15v-22h15v2h-14V142z"/>
			<path class="st0" d="M363,154h-3l-7-8h-6v8h-2v-22c3,0,6,0,10,0c5,0,7,3,7,7s-2,7-7,7L363,154z M347,144L347,144h7c4,0,6-2,6-5
				s-2-5-5-5h-8V144z"/>
			<path class="st0" d="M376,132l15,18v-18h2v22h-1l-15-18v18h-2v-22H376z"/>
			<path class="st0" d="M429,143c0,6-4,12-11,12c-8,0-12-6-12-12s4-11,12-11C425,132,429,137,429,143z M408,143L408,143
				c0,5,3,10,10,10c6,0,9-5,9-10s-3-10-9-10C411,133,408,138,408,143z"/>
		</g>
	</g>
</g>
</svg>
